<svg width="1500" height="654" viewBox="0 0 1500 654" fill="none" xmlns="http://www.w3.org/2000/svg">
<path d="M1466.65 170.34C1461.72 163.131 1455.82 158.231 1431.34 156.349C1424.88 155.852 1403.67 155.178 1367.93 155.178C1274.04 155.178 1210.27 183.655 1177.62 239.865C1186.61 183.336 1131.48 155 1012.04 155C871.864 155 784.366 211.458 749.481 324.268C736.515 366.238 735.2 400.61 745.431 427.49L712.322 429.727C686.46 431.68 652.428 433.456 631.61 433.456C580.313 433.456 548.482 424.827 536.191 407.641C525.143 392.195 526.244 363.54 539.139 321.711C560.49 252.435 613.528 221.258 698.255 221.258C742.163 221.187 784.899 225.874 784.899 225.874C790.796 225.484 793.425 219.376 792.75 214.299L791.898 207.694L788.878 184.401C786.924 169.132 775.521 160.042 754.703 157.237C735.698 155.959 721.523 155.071 700.67 155.071C700.279 155.071 699.889 155.107 699.533 155.107C588.803 155.355 511.679 191.716 468.09 264.117C484.076 191.431 432.921 155.071 314.304 155.071C248.405 155.071 201.158 156.953 172.489 160.681C150.499 163.415 137.107 172.506 132.275 187.952L122.861 217.885C121.156 223.353 123.785 226.087 130.819 226.087L131.032 226.052C136.254 225.377 156.29 223.424 190.571 220.655C235.936 217.033 269.507 215.186 291.639 215.186C356.898 215.186 384.358 231.52 374.163 264.152C371.96 271.36 366.951 275.87 359.385 277.61C297.643 287.836 248.654 295.222 212.419 299.661C110.428 312.657 51.5276 344.365 35.6481 394.965C13.907 464.454 68.4374 499.217 199.204 499.217C264.427 499.217 319.206 495.417 363.47 487.996C388.977 483.7 401.908 477.202 407.023 460.761L431.393 383.318C428.835 460.726 483.153 499.714 594.487 499.714C642.658 499.714 688.343 498.116 709.942 494.388C732.785 490.411 743.655 485.475 748.735 468.254L753.673 443.86C777.404 480.788 829.412 499.252 909.733 499.252C994.424 499.252 1043.87 496.909 1057.94 492.186C1069.7 488.422 1077.05 482.35 1079.61 473.864C1080.15 472.373 1080.36 470.739 1080.64 468.999L1090.8 436.119C1092.58 430.402 1089.95 427.668 1082.99 427.916L1028.78 430.508C992.612 432.532 964.263 433.527 943.801 433.527C905.328 433.527 878.898 430.899 864.475 425.644C843.053 417.406 832.858 401.037 833.817 376.287L1005.54 354.308C1082.53 344.472 1134 320.788 1160.08 283.22L1101.74 485.688C1100.64 489.488 1101.03 492.612 1103.02 494.849C1105.19 497.37 1108.88 498.613 1114.36 498.613H1185.48C1197.87 498.613 1202.31 492.186 1203.84 486.824L1266.65 268.2C1274.93 239.439 1301.39 225.413 1347.57 225.413C1389.28 225.413 1420.72 225.803 1440.79 226.549C1441.32 226.585 1441.82 226.585 1442.35 226.585C1446.26 226.585 1453.37 225.2 1456.88 215.648L1467.9 185.644C1470.06 179.82 1469.6 174.636 1466.65 170.34ZM320.982 433.385C298.744 436.829 266.914 438.569 225.279 438.569C153.022 438.569 121.44 423.975 130.606 394.858C137.178 373.979 156.077 361.409 187.516 357.148L351.853 335.098L320.982 433.385ZM1080.46 256.234C1073.54 278.64 1041.39 294.015 984.086 302.253L847.21 321.676L850.691 310.455C862.023 273.598 878.187 248.458 898.969 235.142C919.751 221.862 953.642 215.115 1000.61 215.115C1062.31 215.115 1088.92 228.857 1080.46 256.234Z" fill="#767676"/>
</svg>
