<svg width="2739" height="820" viewBox="0 0 2739 820" fill="none" xmlns="http://www.w3.org/2000/svg">
<path d="M401.841 455.196C385.171 492.063 359.732 521.911 325.523 544.707C291.298 567.536 253.139 578.934 211.046 578.934C154.021 578.934 105.11 558.532 64.3281 517.729C23.5302 476.909 3.1394 427.775 3.1394 370.26C3.1394 312.778 23.5302 263.742 64.3281 223.152C105.11 182.546 154.005 162.259 211.046 162.259C252.697 162.259 290.757 173.575 325.195 196.174C359.601 218.79 384.925 248.506 401.169 285.374H344.734C331.44 262.676 313.771 244.013 291.298 229.843C266.547 214.28 239.371 206.49 209.752 206.49C166.511 206.49 129.385 222.562 98.4383 254.722C67.4752 286.882 51.969 325.521 51.969 370.621C51.969 415.737 67.4588 454.343 98.4383 486.503C129.385 518.664 166.511 534.736 209.752 534.736C239.371 534.736 266.547 526.962 291.298 511.382C313.836 497.18 331.522 478.303 344.849 455.196H401.841Z" fill="white"/>
<path d="M675.87 328.543C647.464 299.958 612.665 285.51 572.474 285.51C532.381 285.51 497.451 299.958 468.799 328.543C440.294 357.112 425.854 391.979 425.854 432.224C425.854 472.47 440.294 507.369 468.799 535.987C497.435 564.507 532.282 578.955 572.474 578.955C612.698 578.955 647.48 564.507 675.87 535.938C704.194 507.271 718.536 472.355 718.536 432.224C718.536 392.093 704.194 357.211 675.87 328.543ZM644.432 504.663C624.582 524.819 601.027 534.609 572.474 534.609C544.019 534.609 520.3 524.819 500.172 504.614C480.011 484.409 470.143 460.727 470.143 432.224C470.143 403.688 480.011 380.056 500.172 359.884C520.3 339.712 543.92 329.872 572.474 329.872C601.027 329.872 624.565 339.712 644.53 359.851C664.544 380.089 674.247 403.77 674.247 432.241C674.247 460.662 664.527 484.376 644.432 504.663Z" fill="white"/>
<path d="M1038.83 578.954H994.536V432.223C994.536 403.671 984.882 380.006 964.835 359.883C944.903 339.711 921.382 329.871 892.861 329.871C863.668 329.871 840.081 339.711 820.248 359.85C800.168 380.071 790.481 403.704 790.481 432.24V578.971H746.126V432.24C746.126 392.027 760.469 357.193 788.891 328.592C817.248 299.99 851.997 285.525 892.222 285.525C933.003 285.525 967.785 299.99 996.208 328.559C1024.53 357.128 1038.83 391.994 1038.83 432.24V578.954Z" fill="white"/>
<path d="M1304.1 476.667C1296.37 492.641 1285.42 506.45 1270.16 516.897C1253.04 528.705 1233.83 534.609 1213 534.609C1184.59 534.609 1160.91 524.818 1140.75 504.646C1120.49 484.343 1110.7 460.661 1110.7 432.223C1110.7 403.802 1120.49 380.104 1140.75 359.883C1160.91 339.711 1184.5 329.871 1213 329.871C1233.82 329.871 1253.04 335.824 1270.16 347.583C1285.42 357.981 1295.91 371.314 1303.71 386.992H1352.34C1342.98 357.456 1325.44 332.889 1299.99 314.061C1274.44 295.136 1245.18 285.525 1212.98 285.525C1172.79 285.525 1138.01 299.974 1109.37 328.559C1080.9 357.177 1066.46 392.043 1066.46 432.24C1066.46 472.42 1080.9 507.352 1109.37 536.003C1137.9 564.522 1172.78 578.971 1212.98 578.971C1245.13 578.971 1274.34 569.377 1299.99 550.517C1325.54 531.46 1343.26 506.778 1352.52 477.061V476.684H1304.1V476.667Z" fill="white"/>
<path d="M1669.28 432.224C1669.28 392.011 1654.94 357.178 1626.56 328.543C1598.22 299.958 1563.41 285.51 1523.22 285.51C1483.14 285.51 1448.19 299.958 1419.54 328.543C1390.99 357.112 1376.55 391.979 1376.55 432.224C1376.55 457.037 1383.14 477.045 1383.37 477.783C1390.28 499.235 1402.43 518.767 1419.54 535.987C1448.15 564.507 1483.01 578.955 1523.22 578.955H1607.83V534.609H1523.22C1494.76 534.609 1471.08 524.819 1450.92 504.614C1439.95 493.691 1433.75 485.951 1428.59 472.257C1428.59 472.06 1423.64 456.627 1423.74 441.293H1669.28V432.224ZM1427.21 396.931C1433.36 379.285 1443.95 364.492 1459.47 351.963C1478.08 337.088 1498.91 329.855 1522.99 329.855C1547.02 329.855 1567.7 337.088 1586.29 351.93C1601.83 364.443 1612.6 379.269 1618.99 396.931H1427.21Z" fill="white"/>
<path d="M1943.16 329.146C1914.87 300.578 1880.06 286.08 1839.82 286.08C1799.59 286.08 1764.79 300.561 1736.19 329.114C1707.79 357.568 1693.3 392.221 1693.25 432.22V690.848H1737.81V538C1766.06 565.52 1800.41 579.509 1839.82 579.509C1880.01 579.509 1914.82 565.028 1943.21 536.442C1971.54 507.824 1985.93 472.958 1985.93 432.794C1985.93 392.647 1971.54 357.764 1943.16 329.146ZM1911.77 505.217C1891.81 525.405 1868.35 535.229 1839.82 535.229C1811.21 535.229 1787.68 525.389 1767.51 505.168C1747.71 485.422 1737.81 460.904 1737.81 432.237C1737.81 403.963 1747.53 380.478 1767.51 360.421C1787.68 340.2 1811.26 330.409 1839.82 330.409C1868.24 330.409 1891.76 340.184 1911.79 360.421C1931.87 380.642 1941.64 404.308 1941.64 432.811C1941.64 461.363 1931.89 484.996 1911.77 505.217Z" fill="white"/>
<path d="M2169.4 578.954H2160.3C2120.13 578.954 2085.23 564.506 2056.73 535.986C2028.09 507.286 2013.63 472.354 2013.63 432.224V205.92H2058.07V285.509H2169.4V329.855H2058.07V432.224C2058.07 460.776 2067.84 484.474 2088.1 504.613C2108.21 524.818 2131.85 534.609 2160.3 534.609H2169.4V578.954H2169.4Z" fill="white"/>
<path d="M2602.41 288.525C2591.2 262.793 2575.73 240.276 2555.94 220.957C2515.54 181.384 2467 161.605 2410.34 161.605H2279.86V578.936H2409.03H2410.35C2410.76 578.936 2411.22 578.936 2411.67 578.936C2451.63 578.936 2488.54 568.178 2522.36 546.645C2548.71 529.49 2570.24 507.531 2586.94 480.717C2597.92 464.005 2606.05 446.014 2611.31 426.662C2616.59 408.18 2619.21 389.303 2619.21 369.951C2619.21 341.399 2613.62 314.24 2602.41 288.525ZM2570.22 388.073C2568.65 400.619 2565.92 412.542 2562.04 423.891C2551.53 456.281 2532.73 482.701 2505.65 503.135C2478.58 523.554 2448.28 533.984 2414.78 534.41H2324.22V205.918H2413.03C2454.33 205.918 2490.2 220.498 2520.57 249.608C2533.8 262.597 2544.73 277.389 2553.29 293.953C2565.37 317.832 2571.42 343.137 2571.42 369.836C2571.4 375.904 2570.99 381.989 2570.22 388.073Z" fill="white"/>
<path d="M2655.72 162.936C2656.54 163.69 2656.95 164.609 2656.95 165.691C2656.95 166.774 2656.54 167.692 2655.72 168.446C2654.9 169.201 2653.82 169.562 2652.46 169.562H2632.71V221.09C2632.71 222.32 2632.27 223.337 2631.38 224.141C2630.5 224.961 2629.38 225.371 2628.02 225.371C2626.66 225.371 2625.55 224.961 2624.66 224.141C2623.78 223.321 2623.34 222.304 2623.34 221.09V169.562H2603.39C2602.16 169.562 2601.14 169.184 2600.34 168.446C2599.52 167.708 2599.11 166.79 2599.11 165.691C2599.11 164.609 2599.52 163.69 2600.34 162.936C2601.16 162.198 2602.17 161.821 2603.39 161.821H2652.45C2653.82 161.804 2654.9 162.182 2655.72 162.936Z" fill="white"/>
<path d="M2733.69 161.802C2735.05 161.802 2736.27 162.179 2737.36 162.917C2738.45 163.671 2738.99 164.655 2738.99 165.869V221.071C2738.99 222.301 2738.51 223.318 2737.56 224.121C2736.61 224.941 2735.53 225.351 2734.3 225.351C2732.94 225.351 2731.79 224.941 2730.84 224.121C2729.89 223.301 2729.41 222.285 2729.41 221.071V179.727L2707.22 218.841C2706.53 220.333 2705.25 221.087 2703.35 221.087C2701.32 221.087 2699.76 220.202 2698.66 218.447L2676.88 180.563V221.104C2676.88 222.334 2676.4 223.351 2675.45 224.154C2674.5 224.974 2673.36 225.384 2671.99 225.384C2670.63 225.384 2669.52 224.974 2668.63 224.154C2667.75 223.334 2667.31 222.317 2667.31 221.104V165.902C2667.31 164.672 2667.85 163.655 2668.93 162.851C2670.01 162.031 2671.24 161.621 2672.6 161.621C2674.77 161.621 2676.27 162.441 2677.08 164.065L2703.14 209.083L2729.2 164.065C2730.02 162.556 2731.51 161.802 2733.69 161.802Z" fill="white"/>
</svg>
