<svg width="2855" height="650" viewBox="0 0 2855 650" fill="none" xmlns="http://www.w3.org/2000/svg">
<path d="M855.067 271.188C850.145 287.387 826.77 298.46 785.35 304.406L686.311 318.35L688.771 310.353C696.973 283.901 708.661 265.652 723.63 256.015C738.599 246.378 763.204 241.662 797.243 241.662C841.943 241.457 861.218 251.504 855.067 271.188ZM305.534 398.933C289.54 401.394 266.369 402.624 236.227 402.624C183.939 402.624 161.178 392.167 167.74 371.047C172.456 356.078 186.194 346.851 208.955 343.775L327.884 327.782L305.534 398.933ZM1134.34 209.264C1130.86 204.138 1126.55 200.447 1108.71 199.217C1104 198.807 1088.62 198.397 1062.78 198.397C994.911 198.397 948.774 218.901 924.989 259.296C931.55 218.491 891.566 198.191 805.24 198.191C703.74 198.191 640.585 238.791 615.158 320.195C605.726 350.542 604.906 375.148 612.288 394.627L588.297 396.268C569.637 397.703 545.031 398.933 529.858 398.933C492.744 398.933 469.778 392.782 460.756 380.274C452.759 369.201 453.579 348.492 462.807 318.35C478.39 268.523 516.735 245.968 578.044 245.968C609.827 245.968 640.79 249.248 640.79 249.248C645.096 249.043 646.941 244.532 646.531 240.841L645.916 236.125L643.66 219.311C642.225 208.239 634.023 201.677 618.849 199.627C605.111 198.807 594.858 197.986 579.89 197.986C579.685 197.986 579.275 197.986 579.07 197.986C498.895 198.191 443.122 224.438 411.544 276.52C423.027 224.233 386.118 197.986 300.202 197.986C252.63 197.986 218.387 199.422 197.677 202.087C181.888 204.138 172.046 210.699 168.56 221.772L161.793 243.302C160.563 247.198 162.409 249.248 167.535 249.248H167.74C171.431 248.838 185.989 247.403 210.8 245.353C243.608 242.687 268.009 241.457 283.798 241.457C330.959 241.457 350.849 253.349 343.468 276.725C341.827 281.851 338.341 285.132 332.805 286.362C288.104 293.744 252.631 299.075 226.589 302.356C152.771 311.788 110.121 334.548 98.6383 371.047C82.8494 421.079 122.424 446.094 216.952 446.094C264.113 446.094 303.688 443.429 335.676 437.893C354.13 434.817 363.562 430.101 367.253 418.208L384.888 362.435C383.042 418.208 422.412 446.299 502.996 446.299C537.855 446.299 570.868 445.069 586.452 442.403C603.061 439.533 610.852 436.047 614.543 423.539L618.029 405.905C635.253 432.561 672.778 445.889 731.012 445.889C792.322 445.889 828 444.249 838.253 440.763C846.865 438.098 851.991 433.587 853.836 427.64C854.246 426.615 854.452 425.384 854.657 424.154L862.038 400.369C863.269 396.268 861.423 394.217 856.297 394.422L817.133 396.268C790.886 397.703 770.381 398.523 755.618 398.523C727.731 398.523 708.661 396.678 698.204 392.782C682.62 386.835 675.238 374.943 676.058 357.309L800.318 341.52C856.092 334.343 893.206 317.324 912.07 290.258L870.035 436.252C869.215 438.918 869.625 441.173 871.06 442.814C872.701 444.659 875.367 445.479 879.263 445.479H930.73C939.752 445.479 943.033 440.763 944.058 436.867L989.579 279.185C995.526 258.475 1014.8 248.428 1048.02 248.428C1078.16 248.428 1100.92 248.633 1115.48 249.248C1115.89 249.248 1116.3 249.248 1116.71 249.248C1119.58 249.248 1124.71 248.223 1127.17 241.457L1135.16 219.722C1137.01 216.031 1136.6 212.34 1134.34 209.264Z" fill="white"/>
<path d="M1867.22 298.051L1826.41 176.663C1827.64 176.253 1829.49 175.843 1831.95 175.433C1834.41 175.022 1837.07 174.817 1839.74 174.817C1844.25 174.817 1847.94 176.048 1850.61 178.303C1853.27 180.559 1855.32 183.839 1856.76 188.35L1881.57 270.78L1907 187.735C1908.43 183.429 1910.28 180.354 1912.94 178.098C1915.61 175.843 1919.1 174.817 1923.81 174.817C1927.3 174.817 1931.4 175.432 1936.11 176.663L1894.69 298.051H1867.22Z" fill="white"/>
<path d="M1990.45 297.229V175.841C1992.09 175.636 1993.73 175.43 1995.37 175.225C1997.01 175.02 1998.24 175.021 1999.06 175.021C2000.9 175.021 2002.75 175.226 2004.6 175.636C2006.44 176.046 2008.29 176.661 2009.72 177.686C2011.36 178.711 2012.59 180.147 2013.62 181.992C2014.64 183.837 2015.26 186.298 2015.26 189.169V297.229H1990.45Z" fill="white"/>
<path d="M2114.33 234.894C2121.51 234.894 2127.45 233.048 2131.55 229.562C2135.65 226.076 2137.91 220.54 2137.91 213.158C2137.91 205.572 2135.86 200.24 2131.96 197.165C2127.86 194.089 2122.53 192.449 2115.56 192.449C2113.3 192.449 2111.46 192.448 2109.82 192.654C2108.18 192.859 2106.95 192.859 2105.72 193.064V234.894H2114.33ZM2115.97 251.502H2105.92V297.228H2081.11V176.455C2086.65 175.84 2092.18 175.43 2097.72 175.02C2103.46 174.815 2108.59 174.609 2113.1 174.609C2130.53 174.609 2143.45 177.48 2151.65 183.426C2159.85 189.373 2163.95 198.395 2163.95 210.493C2163.95 215.619 2163.34 220.13 2162.11 223.821C2160.87 227.717 2159.03 230.998 2156.98 234.073C2154.72 236.944 2152.26 239.405 2149.6 241.25C2146.93 243.095 2144.06 244.736 2140.98 245.761L2170.92 295.793C2168.67 296.818 2166.21 297.433 2163.75 298.048C2161.28 298.663 2158.82 298.868 2156.57 298.868C2152.06 298.868 2148.37 297.843 2145.29 295.998C2142.22 294.152 2139.55 290.872 2136.88 286.566L2115.97 251.502Z" fill="white"/>
<path d="M2250.43 297.223V196.135H2212.49V195.93C2212.29 194.494 2212.08 193.264 2212.08 192.239C2212.08 191.213 2212.08 190.188 2212.08 188.753C2212.08 185.472 2213.31 182.601 2215.57 179.731C2218.03 177.065 2221.92 175.63 2227.46 175.63H2312.56C2312.97 178.09 2313.17 180.756 2313.17 183.422C2313.17 186.497 2312.15 189.368 2309.89 192.034C2307.64 194.699 2303.94 195.93 2298.2 195.93H2275.44V297.018H2250.43V297.223Z" fill="white"/>
<path d="M2436.89 175.843C2438.53 175.637 2440.17 175.432 2441.81 175.227C2443.45 175.022 2444.68 175.022 2445.5 175.022C2447.35 175.022 2449.19 175.227 2451.04 175.638C2452.88 176.048 2454.73 176.663 2456.16 177.688C2457.8 178.713 2459.04 180.149 2460.06 181.994C2461.09 183.839 2461.7 186.3 2461.7 189.171V248.225C2461.7 250.685 2461.7 253.146 2461.5 255.401C2461.29 257.862 2461.29 260.322 2460.88 262.783C2460.47 267.909 2459.24 272.625 2457.19 277.136C2455.14 281.647 2452.27 285.543 2448.58 288.824C2444.68 292.105 2439.97 294.77 2434.43 296.616C2428.69 298.461 2422.13 299.487 2414.33 299.487C2406.54 299.487 2399.78 298.666 2394.44 297.026C2388.91 295.386 2384.4 292.925 2380.91 289.644C2377.22 286.363 2374.55 282.468 2372.5 277.956C2370.66 273.24 2369.22 267.909 2368.61 261.963C2368.4 259.707 2368.2 257.452 2367.99 255.196C2367.79 252.941 2367.79 250.48 2367.79 248.019V175.638C2369.43 175.433 2371.07 175.228 2372.71 175.022C2374.35 174.817 2375.58 174.817 2376.4 174.817C2378.25 174.817 2380.09 175.022 2381.94 175.433C2383.78 175.843 2385.63 176.458 2387.06 177.483C2388.7 178.508 2389.93 179.944 2390.96 181.789C2391.98 183.634 2392.6 186.095 2392.6 188.966V249.66C2392.6 253.966 2392.8 257.862 2393.42 261.348C2394.03 264.833 2395.06 267.909 2396.7 270.37C2398.34 272.83 2400.6 274.676 2403.47 276.111C2406.34 277.546 2410.23 278.162 2414.95 278.162C2423.15 278.162 2428.89 275.701 2432.17 270.985C2435.45 266.269 2437.1 259.502 2437.1 250.89V175.843H2436.89Z" fill="white"/>
<path d="M2565.45 197.576L2549.04 249.248H2581.44L2565.45 197.576ZM2596.62 297.229L2586.36 267.497H2544.53L2534.49 297.229H2509.88L2551.91 177.481C2553.35 176.866 2555.4 176.251 2558.07 175.841C2560.73 175.225 2563.4 175.021 2566.47 175.021C2567.7 175.021 2569.34 175.225 2570.98 175.431C2572.62 175.636 2574.26 176.251 2575.7 177.071C2577.34 177.891 2578.78 178.916 2580.21 180.352C2581.65 181.787 2582.67 183.837 2583.49 186.298L2622.45 297.229H2596.62Z" fill="white"/>
<path d="M2677.6 297.229V175.841C2679.24 175.636 2680.88 175.43 2682.52 175.225C2684.16 175.02 2685.39 175.021 2686.21 175.021C2688.06 175.021 2689.91 175.226 2691.75 175.636C2693.6 176.046 2695.44 176.661 2696.88 177.686C2698.52 178.711 2699.75 180.147 2700.77 181.992C2701.8 183.837 2702.41 186.298 2702.41 189.169V277.134H2737.68C2740.55 277.134 2743.01 277.544 2744.86 278.16C2746.7 278.98 2748.34 279.8 2749.37 281.03C2750.39 282.26 2751.22 283.696 2751.63 285.131C2752.04 286.771 2752.24 288.207 2752.24 289.847C2752.24 291.078 2752.24 292.513 2752.24 294.153C2752.24 295.794 2752.04 296.819 2752.04 297.024H2677.6V297.229Z" fill="white"/>
<path d="M1834.66 462.701C1833.22 461.676 1831.99 460.651 1830.97 459.215C1829.94 457.985 1829.53 456.345 1829.53 454.704C1829.53 452.654 1830.35 450.193 1831.99 447.323C1833.63 444.452 1835.48 441.786 1837.32 439.121C1840.6 441.786 1844.91 444.452 1849.83 446.912C1854.75 449.578 1860.49 450.808 1867.26 450.808C1869.72 450.808 1872.18 450.603 1874.64 449.988C1877.1 449.373 1879.15 448.348 1881 447.118C1882.84 445.887 1884.49 444.247 1885.72 442.196C1886.95 440.146 1887.56 437.685 1887.56 434.61C1887.56 431.534 1886.95 428.868 1885.51 426.613C1884.28 424.357 1882.43 422.512 1880.18 421.077C1877.92 419.641 1875.46 418.206 1872.59 417.181C1869.72 416.155 1866.65 414.925 1863.77 413.9C1859.88 412.669 1855.98 411.029 1852.09 409.594C1848.19 407.953 1844.71 405.903 1841.42 403.442C1838.35 400.982 1835.68 397.701 1833.63 393.805C1831.58 389.909 1830.56 384.988 1830.56 378.837C1830.56 373.095 1831.79 367.969 1834.04 363.458C1836.3 358.947 1839.37 355.256 1843.48 352.385C1847.37 349.515 1852.09 347.259 1857.21 345.619C1862.34 344.183 1867.88 343.363 1873.62 343.363C1877.51 343.363 1881.41 343.568 1884.69 344.183C1888.18 344.799 1891.25 345.414 1893.92 346.439C1896.58 347.259 1898.84 348.079 1900.89 349.105C1902.73 349.925 1904.17 350.745 1905.19 351.565C1908.48 353.411 1910.32 356.281 1910.32 359.767C1910.32 361.202 1909.71 363.253 1908.48 365.713C1907.25 368.174 1905.4 370.635 1903.14 373.095C1900.07 370.635 1896.17 368.379 1891.46 366.124C1886.74 363.868 1881.61 362.843 1876.08 362.843C1873.82 362.843 1871.57 363.048 1869.31 363.458C1867.06 363.868 1865.01 364.688 1863.16 365.713C1861.31 366.739 1859.67 368.174 1858.44 370.019C1857.21 371.865 1856.6 374.12 1856.6 376.786C1856.6 379.247 1857.21 381.502 1858.44 383.348C1859.67 385.193 1861.31 386.833 1863.36 388.269C1865.42 389.704 1867.88 390.934 1870.54 391.96C1873.21 392.985 1876.08 394.215 1878.95 395.24C1882.84 396.676 1886.74 398.316 1890.64 399.956C1894.53 401.597 1898.22 403.852 1901.5 406.313C1904.78 408.979 1907.45 412.259 1909.5 416.155C1911.55 420.051 1912.58 424.972 1912.58 430.919C1912.58 437.275 1911.55 443.017 1909.3 447.938C1907.04 452.859 1903.96 456.96 1899.86 460.446C1895.97 463.727 1891.05 466.392 1885.51 468.032C1879.97 469.673 1873.82 470.493 1867.06 470.493C1858.44 470.493 1851.27 469.673 1845.94 467.827C1841.01 465.777 1837.12 464.137 1834.66 462.701Z" fill="white"/>
<path d="M2041.7 345.82C2043.34 345.615 2044.98 345.41 2046.62 345.205C2048.26 345 2049.49 345 2050.31 345C2052.16 345 2054 345.205 2055.85 345.615C2057.69 346.025 2059.54 346.64 2060.97 347.666C2062.61 348.691 2063.84 350.126 2064.87 351.972C2065.89 353.817 2066.51 356.278 2066.51 359.148V418.202C2066.51 420.663 2066.51 423.123 2066.3 425.379C2066.1 427.839 2066.1 430.3 2065.69 432.76C2065.28 437.887 2064.05 442.603 2062 447.114C2059.95 451.625 2057.08 455.521 2053.39 458.802C2049.49 462.082 2044.77 464.748 2039.24 466.593C2033.5 468.439 2026.94 469.464 2019.14 469.464C2011.35 469.464 2004.58 468.644 1999.25 467.003C1993.92 465.363 1989.21 462.902 1985.72 459.622C1982.03 456.341 1979.36 452.445 1977.31 447.934C1975.47 443.218 1974.03 437.887 1973.42 431.94C1973.21 429.685 1973.01 427.429 1972.8 425.174C1972.6 422.918 1972.6 420.458 1972.6 417.997V345.615C1974.24 345.41 1975.88 345.205 1977.52 345C1979.16 344.795 1980.39 344.795 1981.21 344.795C1983.05 344.795 1984.9 345 1986.75 345.41C1988.59 345.82 1990.44 346.435 1991.87 347.46C1993.51 348.486 1994.74 349.921 1995.77 351.766C1996.79 353.612 1997.41 356.072 1997.41 358.943V419.637C1997.41 423.943 1997.61 427.839 1998.23 431.325C1998.84 434.811 1999.87 437.887 2001.51 440.347C2003.15 442.808 2005.4 444.653 2008.28 446.088C2011.15 447.524 2015.04 448.139 2019.76 448.139C2027.96 448.139 2033.7 445.678 2036.98 440.962C2040.26 436.246 2041.9 429.48 2041.9 420.868V345.82H2041.7Z" fill="white"/>
<path d="M2233.26 467.003L2227.72 386.42L2203.11 441.578H2182.2L2158.21 388.88L2152.88 467.003H2129.09L2137.91 346.435C2139.14 346.025 2140.98 345.615 2143.24 345.41C2145.49 345 2147.96 344.795 2150.62 344.795C2154.52 344.795 2157.59 345.82 2159.85 347.666C2162.1 349.511 2163.74 351.972 2165.18 355.047L2192.66 420.047L2220.34 355.868C2221.98 351.972 2224.23 349.306 2226.69 347.46C2229.15 345.82 2232.23 345 2235.31 345C2237.77 345 2240.23 345.205 2242.48 345.41C2244.74 345.615 2246.58 346.025 2247.81 346.64L2256.43 467.209H2233.26V467.003Z" fill="white"/>
<path d="M2421.08 467.003L2415.55 386.42L2390.94 441.578H2370.03L2346.04 388.88L2340.7 467.003H2316.92L2325.74 346.435C2326.97 346.025 2328.81 345.615 2331.07 345.41C2333.53 345 2335.78 344.795 2338.45 344.795C2342.34 344.795 2345.63 345.82 2347.68 347.666C2349.93 349.511 2351.57 351.972 2353.01 355.047L2380.48 420.047L2408.17 355.868C2409.81 351.972 2412.06 349.306 2414.52 347.46C2416.98 345.82 2420.06 345 2423.13 345C2425.59 345 2428.06 345.205 2430.31 345.41C2432.57 345.615 2434.41 346.025 2435.64 346.64L2444.25 467.209H2421.08V467.003Z" fill="white"/>
<path d="M2507.17 467.004V345.615C2508.81 345.41 2510.45 345.205 2512.09 345C2513.73 344.795 2514.96 344.795 2515.78 344.795C2517.62 344.795 2519.47 345 2521.31 345.41C2523.16 345.82 2525 346.435 2526.44 347.46C2528.08 348.486 2529.31 349.921 2530.34 351.766C2531.36 353.612 2531.98 356.072 2531.98 358.943V467.004H2507.17Z" fill="white"/>
<path d="M2624.65 467.01V365.921H2586.71V365.716C2586.51 364.28 2586.3 363.05 2586.3 362.025C2586.3 361 2586.3 359.974 2586.3 358.539C2586.3 355.258 2587.53 352.388 2589.79 349.517C2592.25 346.851 2596.15 345.416 2601.68 345.416H2686.78C2687.19 347.877 2687.39 350.542 2687.39 353.208C2687.39 356.284 2686.37 359.154 2684.11 361.82C2681.86 364.485 2678.17 365.716 2672.42 365.716H2649.66V466.804H2624.65V467.01Z" fill="white"/>
<path fill-rule="evenodd" clip-rule="evenodd" d="M1678.35 120.475H1682.04C1713.62 120.475 1739.25 146.311 1739.25 177.683V475.207C1739.25 506.785 1713.42 532.416 1682.04 532.416H1678.35C1690.45 521.138 1697.83 505.144 1697.83 487.305V165.38C1697.83 147.746 1690.24 131.752 1678.35 120.475ZM1263.74 120.475H1267.23C1255.13 131.752 1247.75 147.746 1247.75 165.585V487.51C1247.75 505.144 1255.33 521.138 1267.23 532.621H1263.74C1232.16 532.621 1206.53 506.785 1206.53 475.412V177.888C1206.53 146.106 1232.37 120.475 1263.74 120.475Z" fill="white"/>
<path fill-rule="evenodd" clip-rule="evenodd" d="M1354.79 257.452H1591.01V395.449H1354.79V257.452ZM1342.28 213.776H1603.31C1620.53 213.776 1634.68 227.925 1634.68 245.149V407.957C1634.68 425.181 1620.53 439.329 1603.31 439.329H1342.28C1325.06 439.329 1310.91 425.181 1310.91 407.957V245.149C1310.91 227.72 1325.06 213.776 1342.28 213.776Z" fill="white"/>
</svg>
