<svg width="2299" height="491" viewBox="0 0 2299 491" fill="none" xmlns="http://www.w3.org/2000/svg">
<g clip-path="url(#clip0)">
<path d="M811.506 282.8L797.803 321.623H796.661C794.377 312.869 790.19 299.547 783.339 283.561L709.878 98.96H637.939V393.179H685.517V211.624C685.517 200.205 685.517 187.264 685.137 171.278C684.756 163.285 683.995 157.195 683.614 152.627H684.756C687.04 164.046 689.704 172.42 691.608 177.748L779.913 392.418H813.409L900.954 175.845C902.857 170.897 904.76 161.001 906.663 152.627H907.805C906.663 174.323 905.902 193.734 905.521 205.534V392.038H956.145V98.1988H886.87L811.506 282.8ZM1004.1 181.174H1053.59V392.038H1004.1V181.174ZM1029.23 92.1088C1020.85 92.1088 1014 95.1538 1008.29 100.482C1002.58 105.811 999.537 112.662 999.537 121.036C999.537 129.029 1002.58 135.88 1008.29 141.209C1014 146.538 1020.85 149.202 1029.23 149.202C1037.6 149.202 1044.83 146.157 1050.16 141.209C1055.87 135.88 1058.91 129.029 1058.91 121.036C1058.91 113.043 1055.87 106.192 1050.16 100.482C1045.21 95.1538 1037.98 92.1088 1029.23 92.1088ZM1229.06 179.271C1219.92 177.368 1210.41 176.226 1201.27 176.226C1178.81 176.226 1158.26 181.174 1141.13 191.07C1124 200.966 1110.3 214.669 1101.55 231.796C1092.41 249.305 1087.84 269.478 1087.84 292.696C1087.84 312.869 1092.41 330.758 1101.16 347.124C1109.92 363.11 1122.1 376.051 1138.47 384.806C1154.07 393.56 1172.34 398.127 1192.9 398.127C1216.5 398.127 1236.67 393.179 1252.65 384.044L1253.04 383.664V337.989L1251.13 339.512C1243.9 344.841 1235.53 349.408 1227.15 352.072C1218.4 355.117 1210.41 356.64 1203.55 356.64C1183.76 356.64 1168.16 350.931 1157.12 338.37C1145.7 326.19 1139.99 309.443 1139.99 288.509C1139.99 266.814 1145.7 249.686 1157.5 237.125C1169.3 224.565 1184.9 218.094 1203.93 218.094C1219.92 218.094 1236.29 223.423 1251.13 234.08L1253.04 235.603V187.264L1252.65 186.883C1246.18 184.219 1238.95 181.174 1229.06 179.271ZM1392.35 177.748C1380.17 177.748 1368.75 181.555 1358.85 189.548C1350.48 196.399 1344.77 206.295 1339.82 218.094H1339.44V181.174H1289.96V392.038H1339.44V284.322C1339.44 266.052 1343.24 250.827 1351.62 239.789C1359.99 228.371 1370.65 222.662 1383.59 222.662C1388.16 222.662 1392.73 223.803 1398.44 224.565C1403.76 226.087 1407.57 227.61 1410.24 229.513L1412.14 231.035V181.555L1411 181.174C1407.57 178.89 1400.72 177.748 1392.35 177.748ZM1527.09 176.607C1492.45 176.607 1464.67 186.883 1445.25 207.056C1425.46 227.229 1415.94 255.014 1415.94 290.031C1415.94 322.765 1425.84 349.408 1444.87 368.82C1463.9 387.851 1489.79 397.747 1522.14 397.747C1556.02 397.747 1583.04 387.47 1602.45 366.917C1622.25 346.363 1631.76 318.958 1631.76 285.083C1631.76 251.589 1622.63 224.945 1603.98 205.534C1586.09 186.122 1559.82 176.607 1527.09 176.607ZM1566.67 338.751C1557.54 350.55 1543.07 356.259 1525.19 356.259C1507.3 356.259 1492.83 350.55 1482.55 337.989C1472.28 326.19 1467.33 309.062 1467.33 287.367C1467.33 264.91 1472.66 247.783 1482.55 235.603C1492.83 223.423 1506.92 217.333 1524.8 217.333C1542.31 217.333 1556.02 223.042 1565.91 234.841C1575.81 246.641 1581.14 263.769 1581.14 286.225C1580.38 309.062 1576.19 326.951 1566.67 338.751ZM1742.14 268.717C1726.54 262.246 1716.64 257.298 1712.07 253.111C1708.27 249.305 1706.36 243.976 1706.36 237.125C1706.36 231.416 1708.65 225.706 1714.36 221.9C1720.07 218.094 1726.54 216.191 1736.05 216.191C1744.43 216.191 1753.18 217.713 1761.56 219.997C1769.93 222.281 1777.54 225.707 1783.63 230.274L1785.54 231.796V185.361L1784.39 184.98C1778.68 182.696 1771.07 180.413 1761.94 178.51C1752.8 176.987 1744.43 176.226 1737.58 176.226C1713.98 176.226 1694.57 181.935 1679.34 194.496C1664.11 206.295 1656.88 222.281 1656.88 240.931C1656.88 250.827 1658.41 259.582 1661.83 266.813C1665.26 274.045 1670.21 280.896 1677.06 286.606C1683.91 291.934 1693.8 298.024 1707.51 303.734C1718.93 308.682 1727.68 312.488 1733.01 315.533C1738.34 318.578 1741.76 322.003 1744.43 324.668C1746.33 327.713 1747.47 331.519 1747.47 336.467C1747.47 350.55 1736.82 357.401 1715.12 357.401C1706.75 357.401 1697.99 355.879 1687.71 352.453C1677.44 349.027 1667.92 344.079 1659.93 338.37L1658.02 336.848V385.186L1659.17 385.567C1666.4 388.993 1675.15 391.276 1685.81 393.941C1696.47 395.844 1705.98 397.366 1714.36 397.366C1739.86 397.366 1760.79 391.657 1775.64 379.096C1790.86 366.917 1798.86 351.311 1798.86 331.138C1798.86 317.055 1795.05 304.495 1786.68 294.979C1775.64 285.844 1761.94 276.329 1742.14 268.717ZM1929.41 176.607C1894.78 176.607 1866.99 186.883 1847.58 207.056C1828.17 227.229 1818.27 255.014 1818.27 290.031C1818.27 322.765 1828.17 349.408 1847.2 368.82C1866.23 387.851 1892.11 397.747 1924.47 397.747C1958.34 397.747 1985.37 387.47 2004.78 366.917C2024.57 346.363 2034.09 318.958 2034.09 285.083C2034.09 251.589 2024.95 224.945 2006.3 205.534C1988.41 186.122 1962.15 176.607 1929.41 176.607ZM1968.62 338.751C1959.48 350.55 1945.02 356.259 1927.13 356.259C1908.86 356.259 1894.78 350.55 1884.5 337.989C1874.22 326.19 1869.27 309.062 1869.27 287.367C1869.27 264.91 1874.6 247.783 1884.5 235.603C1894.78 223.423 1908.86 217.333 1926.75 217.333C1943.88 217.333 1957.96 223.042 1967.86 234.841C1977.75 246.641 1983.08 263.769 1983.08 286.225C1983.08 309.062 1978.13 326.951 1968.62 338.751ZM2298.62 221.9V181.174H2248.76V118.752L2247.24 119.133L2200.04 133.216L2198.9 133.596V181.174H2124.3V154.531C2124.3 142.351 2127.34 132.835 2132.67 126.745C2138 120.655 2145.99 117.61 2155.89 117.61C2162.74 117.61 2169.97 119.133 2177.96 122.558L2179.87 123.7V80.6902L2178.73 80.3096C2171.87 78.0259 2162.74 76.5034 2150.94 76.5034C2136.09 76.5034 2123.15 79.929 2111.35 85.6383C2099.55 92.1088 2090.8 100.863 2084.33 112.662C2077.86 124.081 2074.43 137.022 2074.43 151.866V181.174H2039.8V221.52H2074.43V392.038H2124.3V221.9H2198.9V330.377C2198.9 374.91 2219.83 397.366 2261.7 397.366C2268.55 397.366 2275.79 396.224 2282.64 395.082C2289.87 393.56 2295.2 391.657 2298.24 390.134L2298.62 389.754V349.027L2296.72 350.55C2293.68 352.453 2291.01 353.976 2286.44 355.117C2282.64 356.259 2279.21 356.64 2276.55 356.64C2266.65 356.64 2259.8 354.356 2254.85 348.647C2250.28 343.318 2248 334.564 2248 321.623V221.9H2298.62Z" fill="#737373"/>
<path d="M0 0H233.326V233.32H0V0Z" fill="#F25022"/>
<path d="M257.684 0H491.009V233.32H257.684V0Z" fill="#7FBA00"/>
<path d="M0 257.68H233.326V491H0V257.68Z" fill="#00A4EF"/>
<path d="M257.684 257.68H491.009V491H257.684V257.68Z" fill="#FFB900"/>
</g>
<defs>
<clipPath id="clip0">
<rect width="2299" height="491" fill="white"/>
</clipPath>
</defs>
</svg>
