<svg width="2804" height="607" viewBox="0 0 2804 607" fill="none" xmlns="http://www.w3.org/2000/svg">
<path d="M466.185 0V345.666L366.524 445.225V356.552L398.573 324.514V238.873L346.261 319.898V607L299.119 488.425L245.636 434.959V71.7238L306.769 240.389L408.084 139.107L466.185 0ZM0 0V345.666L99.5915 445.225V356.552L67.6119 324.514V238.873L119.923 319.898V607L166.997 488.425L220.48 434.959V71.7238L159.346 240.389L58.0319 139.107L0 0Z" fill="white"/>
<path d="M2243.11 181.549L2207.96 243.558H2224.02V380.53L2243.11 414.152H2447.46L2466.55 380.53V215.241L2447.46 181.549H2243.11ZM2300.66 352.212V243.558H2389.84V352.212H2300.66ZM1439.21 181.549L1404.13 243.558H1420.19V414.152H1643.63L1662.65 380.53V215.241L1643.63 181.549H1439.21ZM1586.01 352.212H1496.83V243.558H1586.01V352.212ZM1989.89 181.549L1954.81 243.558H2039.79V419.871L2116.43 380.805V243.558H2170.95L2206.03 181.549H1989.89ZM1340.51 331.473L1375.6 269.464H1249.81V243.558H1361.4L1396.48 181.549H1173.17V414.221H1339.21L1374.29 352.212H1249.81V331.542H1340.51V331.473ZM1150.77 243.558L1100.53 181.549H878.672V419.871L955.313 380.805V243.558H1033.13L1040.64 251.688L964.824 322.379L1178.14 477.333L1064.07 336.572L1150.77 243.558ZM2803.99 477.264L2689.93 336.503L2776.63 243.558L2726.39 181.549H2504.53V419.871L2581.17 380.805V243.558H2658.98L2666.49 251.688L2590.68 322.379L2803.99 477.264ZM1725.44 181.549L1690.36 243.558H1706.42V419.871L1783.06 380.805V331.473H1865.35V419.802L1941.99 380.736V215.241L1922.97 181.549H1725.44ZM1865.35 272.634H1783.06V243.558H1865.35V272.634ZM859.925 243.558L809.682 181.549H606.915L571.834 243.558H587.893V419.871L664.533 380.805V322.654L720.497 347.734L859.925 243.558ZM664.464 243.558H742.277L749.858 251.688L664.533 309.908V243.558H664.464Z" fill="white"/>
</svg>
