<svg width="40" height="40" viewBox="0 0 40 40" fill="none" xmlns="http://www.w3.org/2000/svg">
<path d="M15.5 9C11.9162 9 9 12.0329 9 15.76V25.12C9 28.8471 11.9162 31.88 15.5 31.88H24.5C28.0838 31.88 31 28.8471 31 25.12V15.76C31 12.0329 28.0838 9 24.5 9H15.5ZM15.5 10.04H24.5C27.5432 10.04 30 12.595 30 15.76V25.12C30 28.285 27.5432 30.84 24.5 30.84H15.5C12.4568 30.84 10 28.285 10 25.12V15.76C10 12.595 12.4568 10.04 15.5 10.04ZM26 13.16C25.7348 13.16 25.4804 13.2696 25.2929 13.4646C25.1054 13.6596 25 13.9242 25 14.2C25 14.4758 25.1054 14.7404 25.2929 14.9354C25.4804 15.1304 25.7348 15.24 26 15.24C26.2652 15.24 26.5196 15.1304 26.7071 14.9354C26.8946 14.7404 27 14.4758 27 14.2C27 13.9242 26.8946 13.6596 26.7071 13.4646C26.5196 13.2696 26.2652 13.16 26 13.16ZM20 14.72C16.9684 14.72 14.5 17.2871 14.5 20.44C14.5 23.5929 16.9684 26.16 20 26.16C23.0316 26.16 25.5 23.5929 25.5 20.44C25.5 17.2871 23.0316 14.72 20 14.72ZM20 15.76C22.4912 15.76 24.5 17.8491 24.5 20.44C24.5 23.0309 22.4912 25.12 20 25.12C17.5088 25.12 15.5 23.0309 15.5 20.44C15.5 17.8491 17.5088 15.76 20 15.76Z" fill="black"/>
</svg>
