<svg width="40" height="40" viewBox="0 0 40 40" fill="none" xmlns="http://www.w3.org/2000/svg">
<path d="M11.619 9C10.1788 9 9 10.1784 9 11.6182V28.3748C9 29.8145 10.1788 30.993 11.619 30.993H20.4358C20.4924 31.0023 20.5501 31.0023 20.6067 30.993H23.5787C23.6353 31.0023 23.693 31.0023 23.7495 30.993H28.381C29.8212 30.993 31 29.8145 31 28.3748V11.6182C31 10.1784 29.8212 9 28.381 9H11.619ZM11.619 10.0473H28.381C29.2549 10.0473 29.9524 10.7445 29.9524 11.6182V28.3748C29.9524 29.2485 29.2549 29.9457 28.381 29.9457H24.1905V22.6147H26.1916L26.9251 18.9492H24.1905V17.9019C24.1905 17.61 24.2183 17.5872 24.3163 17.5235C24.4144 17.4598 24.7173 17.3783 25.2381 17.3783H26.8095V14.4297L26.5108 14.2876C26.5108 14.2876 25.3076 13.7128 23.6667 13.7128C22.4881 13.7128 21.5199 14.1822 20.9003 14.9564C20.2807 15.7307 20 16.7674 20 17.9019V18.9492H18.4286V22.6147H20V29.9457H11.619C10.7451 29.9457 10.0476 29.2485 10.0476 28.3748V11.6182C10.0476 10.7445 10.7451 10.0473 11.619 10.0473ZM23.6667 14.7601C24.7557 14.7601 25.441 15.0001 25.7619 15.1272V16.331H25.2381C24.6353 16.331 24.1522 16.3808 23.7454 16.645C23.3387 16.9091 23.1429 17.4105 23.1429 17.9019V19.9965H25.6463L25.3322 21.5674H23.1429V29.9457H21.0476V21.5674H19.4762V19.9965H21.0476V17.9019C21.0476 16.9419 21.2907 16.1459 21.7188 15.611C22.1468 15.0761 22.75 14.7601 23.6667 14.7601Z" fill="#17171D"/>
</svg>
