<svg width="24" height="24" viewBox="0 0 24 24" fill="none" xmlns="http://www.w3.org/2000/svg">
<path d="M9.95312 0.84375H2.04688C1.7279 0.844114 1.42209 0.970988 1.19654 1.19654C0.970988 1.42209 0.844114 1.7279 0.84375 2.04688V9.95312C0.844114 10.2721 0.970988 10.5779 1.19654 10.8035C1.42209 11.029 1.7279 11.1559 2.04688 11.1562H9.95312C10.2721 11.1559 10.5779 11.029 10.8035 10.8035C11.029 10.5779 11.1559 10.2721 11.1562 9.95312V2.04688C11.1559 1.7279 11.029 1.42209 10.8035 1.19654C10.5779 0.970988 10.2721 0.844114 9.95312 0.84375ZM10.4688 9.95312C10.4686 10.0898 10.4142 10.2209 10.3176 10.3176C10.2209 10.4142 10.0898 10.4686 9.95312 10.4688H2.04688C1.91017 10.4686 1.7791 10.4142 1.68244 10.3176C1.58577 10.2209 1.5314 10.0898 1.53125 9.95312V2.04688C1.5314 1.91017 1.58577 1.7791 1.68244 1.68244C1.7791 1.58577 1.91017 1.5314 2.04688 1.53125H9.95312C10.0898 1.5314 10.2209 1.58577 10.3176 1.68244C10.4142 1.7791 10.4686 1.91017 10.4688 2.04688V9.95312Z" fill="black"/>
<path d="M22.2656 0.84375H14.3594C14.0404 0.844114 13.7346 0.970988 13.509 1.19654C13.2835 1.42209 13.1566 1.7279 13.1562 2.04688V9.95312C13.1566 10.2721 13.2835 10.5779 13.509 10.8035C13.7346 11.029 14.0404 11.1559 14.3594 11.1562H22.2656C22.5846 11.1559 22.8904 11.029 23.116 10.8035C23.3415 10.5779 23.4684 10.2721 23.4688 9.95312V2.04688C23.4684 1.7279 23.3415 1.42209 23.116 1.19654C22.8904 0.970988 22.5846 0.844114 22.2656 0.84375ZM22.7812 9.95312C22.7811 10.0898 22.7267 10.2209 22.6301 10.3176C22.5334 10.4142 22.4023 10.4686 22.2656 10.4688H14.3594C14.2227 10.4686 14.0916 10.4142 13.9949 10.3176C13.8983 10.2209 13.8439 10.0898 13.8438 9.95312V2.04688C13.8439 1.91017 13.8983 1.7791 13.9949 1.68244C14.0916 1.58577 14.2227 1.5314 14.3594 1.53125H22.2656C22.4023 1.5314 22.5334 1.58577 22.6301 1.68244C22.7267 1.7791 22.7811 1.91017 22.7812 2.04688V9.95312Z" fill="black"/>
<path d="M9.95312 13.1562H2.04688C1.7279 13.1566 1.42209 13.2835 1.19654 13.509C0.970988 13.7346 0.844114 14.0404 0.84375 14.3594V22.2656C0.844114 22.5846 0.970988 22.8904 1.19654 23.116C1.42209 23.3415 1.7279 23.4684 2.04688 23.4688H9.95312C10.2721 23.4684 10.5779 23.3415 10.8035 23.116C11.029 22.8904 11.1559 22.5846 11.1562 22.2656V14.3594C11.1559 14.0404 11.029 13.7346 10.8035 13.509C10.5779 13.2835 10.2721 13.1566 9.95312 13.1562ZM10.4688 22.2656C10.4686 22.4023 10.4142 22.5334 10.3176 22.6301C10.2209 22.7267 10.0898 22.7811 9.95312 22.7812H2.04688C1.91017 22.7811 1.7791 22.7267 1.68244 22.6301C1.58577 22.5334 1.5314 22.4023 1.53125 22.2656V14.3594C1.5314 14.2227 1.58577 14.0916 1.68244 13.9949C1.7791 13.8983 1.91017 13.8439 2.04688 13.8438H9.95312C10.0898 13.8439 10.2209 13.8983 10.3176 13.9949C10.4142 14.0916 10.4686 14.2227 10.4688 14.3594V22.2656Z" fill="black"/>
<path d="M22.2656 13.1562H14.3594C14.0404 13.1566 13.7346 13.2835 13.509 13.509C13.2835 13.7346 13.1566 14.0404 13.1562 14.3594V22.2656C13.1566 22.5846 13.2835 22.8904 13.509 23.116C13.7346 23.3415 14.0404 23.4684 14.3594 23.4688H22.2656C22.5846 23.4684 22.8904 23.3415 23.116 23.116C23.3415 22.8904 23.4684 22.5846 23.4688 22.2656V14.3594C23.4684 14.0404 23.3415 13.7346 23.116 13.509C22.8904 13.2835 22.5846 13.1566 22.2656 13.1562ZM22.7812 22.2656C22.7811 22.4023 22.7268 22.5334 22.6301 22.6301C22.5334 22.7268 22.4023 22.7811 22.2656 22.7812H14.3594C14.2227 22.7811 14.0916 22.7268 13.9949 22.6301C13.8982 22.5334 13.8439 22.4023 13.8438 22.2656V14.3594C13.8439 14.2227 13.8982 14.0916 13.9949 13.9949C14.0916 13.8982 14.2227 13.8439 14.3594 13.8438H22.2656C22.4023 13.8439 22.5334 13.8982 22.6301 13.9949C22.7268 14.0916 22.7811 14.2227 22.7812 14.3594V22.2656Z" fill="black"/>
</svg>
