<svg width="57" height="58" viewBox="0 0 57 58" fill="none" xmlns="http://www.w3.org/2000/svg">
<path d="M23.5176 13.5332H25.5388V15.4665H23.5176V13.5332Z" fill="#415763"/>
<path d="M31.6012 13.5332H33.6224V15.4665H31.6012V13.5332Z" fill="#415763"/>
<path d="M28.569 22.2336C30.2691 22.2336 31.6009 21.172 31.6009 19.8169H29.5796C29.5796 19.9873 29.196 20.3002 28.569 20.3002C27.9421 20.3002 27.5584 19.9873 27.5584 19.8169H25.5372C25.5372 21.172 26.869 22.2336 28.569 22.2336Z" fill="#415763"/>
<path d="M54.3507 41.6596L50.507 37.983L49.0777 39.3501L52.9214 43.0266C53.5333 43.6087 54.0184 44.3012 54.3486 45.0638C54.6789 45.8264 54.8477 46.6442 54.8454 47.4696V53.4082C54.8445 54.113 54.5515 54.7887 54.0304 55.2871C53.5094 55.7854 52.803 56.0658 52.0662 56.0666H49.7923V51.2332H51.8135V49.2999H47.7711V31.8999C47.7711 31.6436 47.6647 31.3977 47.4751 31.2164C47.2856 31.0351 47.0286 30.9333 46.7605 30.9333H41.28L35.5159 27.4246L34.6794 24.2241L35.0331 24.0527C35.8264 23.6713 36.493 23.086 36.9579 22.3624C37.4228 21.6388 37.6677 20.8056 37.6651 19.9563V19.3333H38.1704C39.1082 19.3323 40.0072 18.9755 40.6703 18.3412C41.3334 17.7069 41.7064 16.847 41.7075 15.95V14.9833C41.7064 14.099 41.3438 13.2501 40.6972 12.6181C40.0505 11.986 39.1711 11.6209 38.2468 11.6008C38.5287 11.1047 38.6761 10.549 38.6757 9.98444V7.00832C38.6735 5.15025 37.9008 3.36888 36.5273 2.05502C35.1537 0.741163 33.2913 0.00211076 31.3488 0H25.7905C23.848 0.00211076 21.9856 0.741163 20.612 2.05502C19.2385 3.36888 18.4658 5.15025 18.4636 7.00832V9.98444C18.4634 10.5491 18.611 11.1048 18.8931 11.6008C17.9687 11.6208 17.0891 11.9858 16.4424 12.6179C15.7956 13.2499 15.4329 14.0989 15.4318 14.9833V15.95C15.4329 16.847 15.8059 17.7069 16.469 18.3412C17.1321 18.9755 18.0311 19.3323 18.9689 19.3333H19.4742V19.9929C19.4712 20.8463 19.7182 21.6833 20.1872 22.4092C20.6562 23.1351 21.3285 23.7208 22.1278 24.0998L22.452 24.2548L21.6234 27.4246L15.8593 30.9333H10.3788C10.1107 30.9333 9.8537 31.0351 9.66417 31.2164C9.47465 31.3977 9.36817 31.6436 9.36817 31.8999V35.3662L5.62174 38.9497L7.05099 40.3168L9.36817 38.1004V49.2999H5.32576V51.2332H7.34697V56.0666H5.07311C4.33628 56.0658 3.62988 55.7854 3.10887 55.2871C2.58785 54.7887 2.29478 54.113 2.29395 53.4082V47.4696C2.2916 46.6442 2.46042 45.8265 2.79064 45.0638C3.12086 44.3012 3.60593 43.6088 4.21776 43.0266L5.02965 42.2501L3.60066 40.883L2.78864 41.6596C1.98848 42.4208 1.35412 43.3263 0.922265 44.3236C0.49041 45.3209 0.269641 46.3902 0.272737 47.4696V53.4082C0.274175 54.6256 0.780389 55.7927 1.68032 56.6535C2.58025 57.5143 3.80041 57.9985 5.07311 57.9999H52.0662C53.3389 57.9985 54.5591 57.5143 55.459 56.6535C56.3589 55.7927 56.8651 54.6256 56.8666 53.4082V47.4696C56.8697 46.3902 56.6489 45.3209 56.217 44.3236C55.7852 43.3263 55.1508 42.4208 54.3507 41.6596ZM25.5378 32.8666H31.6015V39.6333H25.5378V32.8666ZM33.0307 30.9333L34.7746 29.2658L37.5151 30.9333H33.0307ZM21.2855 11.2629C21.042 11.1408 20.8384 10.9569 20.6971 10.7314C20.5559 10.5058 20.4824 10.2474 20.4848 9.98444V9.26874L24.1524 7.31971C25.5021 6.59699 27.0229 6.21749 28.5697 6.21749C30.1164 6.21749 31.6373 6.59699 32.9869 7.31971L36.6545 9.26874V9.98444C36.6545 10.2469 36.58 10.5044 36.439 10.7295C36.298 10.9546 36.0957 11.1389 35.8538 11.2628C35.6119 11.3866 35.3394 11.4453 35.0654 11.4326C34.7914 11.42 34.526 11.3364 34.2978 11.1908L31.9332 9.68308C30.9379 9.04592 29.7673 8.70578 28.5697 8.70578C27.372 8.70578 26.2014 9.04592 25.2061 9.68308L22.8416 11.1908C22.6142 11.3386 22.3486 11.4235 22.0741 11.4362C21.7996 11.4489 21.5267 11.3889 21.2855 11.2629ZM39.6863 14.9833V15.95C39.6859 16.3344 39.526 16.703 39.2418 16.9748C38.9576 17.2466 38.5723 17.3995 38.1704 17.4H37.6651V13.5333H38.1704C38.5723 13.5337 38.9576 13.6866 39.2418 13.9585C39.526 14.2303 39.6859 14.5989 39.6863 14.9833ZM25.7905 1.93333H31.3488C32.7555 1.93483 34.1041 2.47 35.0988 3.42142C36.0934 4.37284 36.6529 5.66281 36.6545 7.00832V7.05665L33.9683 5.62973C32.3188 4.7464 30.46 4.28256 28.5697 4.28256C26.6793 4.28256 24.8205 4.7464 23.171 5.62973L20.4848 7.05665V7.00832C20.4864 5.66281 21.0459 4.37284 22.0406 3.42142C23.0352 2.47 24.3838 1.93483 25.7905 1.93333ZM18.9689 17.4C18.567 17.3995 18.1817 17.2466 17.8975 16.9748C17.6133 16.703 17.4534 16.3344 17.453 15.95V14.9833C17.4534 14.5989 17.6133 14.2303 17.8975 13.9585C18.1817 13.6866 18.567 13.5337 18.9689 13.5333H19.4742V17.4H18.9689ZM21.4954 19.9929V13.3337C22.3586 13.4534 23.2375 13.2631 23.9627 12.7995L26.3272 11.2916C26.9908 10.8669 27.7712 10.6402 28.5695 10.6402C29.3679 10.6402 30.1483 10.8669 30.8118 11.2916L33.1764 12.7995C33.9017 13.2629 34.7806 13.4532 35.6439 13.3336V19.9563C35.6454 20.448 35.5036 20.9304 35.2345 21.3493C34.9653 21.7682 34.5794 22.1071 34.1201 22.3279L29.2474 24.6881C29.0361 24.7899 28.803 24.8433 28.5664 24.8438C28.3298 24.8444 28.0964 24.7923 27.8846 24.6915L23.0318 22.3707C22.569 22.1512 22.1798 21.8121 21.9082 21.3919C21.6367 20.9716 21.4937 20.487 21.4954 19.9929ZM26.9806 26.4212C27.4748 26.6564 28.0195 26.7781 28.5715 26.7767C29.1235 26.7754 29.6675 26.651 30.1605 26.4135L32.8301 25.1206L33.5142 27.7375L30.1722 30.9333H26.9671L23.6251 27.7368L24.3038 25.1405L26.9806 26.4212ZM22.3647 29.2657L24.1086 30.9333H19.624L22.3647 29.2657ZM11.3894 32.8666H23.5166V40.5999C23.5166 40.8563 23.6231 41.1022 23.8126 41.2835C24.0022 41.4647 24.2592 41.5666 24.5272 41.5666H32.6121C32.8801 41.5666 33.1371 41.4647 33.3267 41.2835C33.5162 41.1022 33.6227 40.8563 33.6227 40.5999V32.8666H45.7499V49.2999H44.7393C42.7708 49.3024 40.8707 49.9908 39.3943 51.2362C37.9179 52.4816 36.9664 54.1987 36.7176 56.0666H33.6227V51.2332C33.6227 50.9769 33.5162 50.731 33.3267 50.5497C33.1371 50.3684 32.8801 50.2666 32.6121 50.2666H24.5272C24.2592 50.2666 24.0022 50.3684 23.8126 50.5497C23.6231 50.731 23.5166 50.9769 23.5166 51.2332V56.0666H20.4217C20.1729 54.1987 19.2214 52.4816 17.745 51.2362C16.2686 49.9908 14.3685 49.3024 12.4 49.2999H11.3894V32.8666ZM9.36817 56.0666V51.2332H12.4C13.8325 51.235 15.2183 51.721 16.3124 52.6055C17.4066 53.4899 18.1387 54.7158 18.3794 56.0666H9.36817ZM25.5378 56.0666V52.1999H31.6015V56.0666H25.5378ZM47.7711 56.0666H38.76C39.0006 54.7158 39.7327 53.4899 40.8269 52.6055C41.921 51.721 43.3068 51.235 44.7393 51.2332H47.7711V56.0666Z" fill="#415763"/>
<path d="M13.4104 34.8003H15.4316V36.7336H13.4104V34.8003Z" fill="#415763"/>
<path d="M17.4536 34.8003H21.496V36.7336H17.4536V34.8003Z" fill="#415763"/>
<path d="M13.4104 38.667H21.4952V40.6003H13.4104V38.667Z" fill="#415763"/>
<path d="M36.655 41.5669H40.1921C41.1299 41.5659 42.029 41.2091 42.6921 40.5749C43.3552 39.9406 43.7282 39.0806 43.7292 38.1836V35.767C43.7292 35.5106 43.6228 35.2647 43.4332 35.0834C43.2437 34.9021 42.9867 34.8003 42.7186 34.8003H39.1815C38.2438 34.8013 37.3447 35.1581 36.6816 35.7924C36.0185 36.4267 35.6455 37.2866 35.6444 38.1836V40.6003C35.6444 40.8567 35.7509 41.1025 35.9404 41.2838C36.1299 41.4651 36.387 41.5669 36.655 41.5669ZM37.6656 38.1836C37.6661 37.7992 37.8259 37.4306 38.1101 37.1588C38.3943 36.8869 38.7796 36.734 39.1815 36.7336H41.708V38.1836C41.7076 38.5681 41.5477 38.9366 41.2636 39.2085C40.9794 39.4803 40.594 39.6332 40.1921 39.6336H37.6656V38.1836Z" fill="#415763"/>
</svg>
