<svg id="emastsaagq81" xmlns="http://www.w3.org/2000/svg" xmlns:xlink="http://www.w3.org/1999/xlink" viewBox="0 0 343 211.210000" shape-rendering="geometricPrecision" text-rendering="geometricPrecision">
        <defs>
            <linearGradient id="emastsaagq84-stroke" x1="94.279997" y1="-51.859993" x2="65.999997" y2="-51.859993" spreadMethod="pad" gradientUnits="userSpaceOnUse">
                <stop id="emastsaagq84-stroke-0" offset="0%" stop-color="rgb(193,45,99)"></stop>
                <stop id="emastsaagq84-stroke-1" offset="100%" stop-color="rgb(131,56,130)"></stop>
            </linearGradient>
            <linearGradient id="emastsaagq86-stroke" x1="171.080000" y1="0.500000" x2="171.080000" y2="210.500000" spreadMethod="pad" gradientUnits="userSpaceOnUse">
                <stop id="emastsaagq86-stroke-0" offset="0%" stop-color="rgb(193,45,99)"></stop>
                <stop id="emastsaagq86-stroke-1" offset="100%" stop-color="rgb(131,56,130)"></stop>
            </linearGradient>
            <linearGradient id="emastsaagq87-stroke" x1="171.500000" y1="0.500000" x2="171.500000" y2="210.500000" spreadMethod="pad" gradientUnits="userSpaceOnUse">
                <stop id="emastsaagq87-stroke-0" offset="0%" stop-color="rgb(193,45,99)"></stop>
                <stop id="emastsaagq87-stroke-1" offset="100%" stop-color="rgb(131,56,130)"></stop>
            </linearGradient>
        </defs>
        <g id="emastsaagq82">
            <g id="emastsaagq85">
                <path id="emastsaagq86" d="M188.230000,193L171.370000,176.070000L153.940000,193.580000L170.790000,210.510000Z" fill="none" stroke="url(#emastsaagq86-stroke)"></path>
                <path id="emastsaagq87" d="M267.520000,55.090000C267.170000,55.090000,319.890000,0.500000,319.520000,0.500000C310.830000,0.660000,278.520000,0.500000,278.520000,0.500000L171.400000,113.230000L64.260000,0.500000C64.260000,0.500000,32,0.660000,23.300000,0.500000C22.970000,0.500000,75.690000,55.090000,75.300000,55.090000C34,55.090000,0.500000,89.100000,0.500000,131C0.500000,172.900000,34,207,75.390000,207C111.790000,207,149.760000,174.590000,171.500000,152.470000C193.200000,174.620000,231.170000,207,267.610000,207C308.970000,207,342.500000,173,342.500000,131C342.500000,89,308.880000,55.090000,267.520000,55.090000ZM77.700000,179.310000C51.314871,178.930201,30.124748,157.432862,30.124748,131.045000C30.124748,104.657138,51.314871,83.159799,77.700000,82.780000C111.580000,82.780000,150.970000,131.840000,150.970000,131.840000C150.970000,131.840000,113.150000,179.310000,77.700000,179.310000ZM265.200000,179.310000C229.750000,179.310000,191.940000,131.840000,191.940000,131.840000C191.940000,131.840000,231.330000,82.780000,265.200000,82.780000C291.585129,83.159799,312.775252,104.657138,312.775252,131.045000C312.775252,157.432862,291.585129,178.930201,265.200000,179.310000Z" fill="none" stroke="url(#emastsaagq87-stroke)" stroke-width="15"></path>
            </g>
        </g>
    </svg>
