<svg width="156" height="150" viewBox="0 0 156 150" fill="none" xmlns="http://www.w3.org/2000/svg">
<path d="M150.553 60.4368C148.957 57.7559 147.449 55.2233 146.63 52.7005C145.76 50.0211 145.468 46.9873 145.159 43.7753C144.665 38.6428 144.154 33.3355 141.106 29.1472C138.026 24.9154 133.115 22.7908 128.366 20.736C125.425 19.4636 122.647 18.2617 120.405 16.6304C118.206 15.0298 116.233 12.78 114.143 10.3983C110.71 6.48487 107.16 2.43832 102.108 0.798183C97.2751 -0.771262 92.1168 0.37223 87.1281 1.47764C84.0669 2.15618 80.9015 2.85757 78 2.85757C75.0988 2.85757 71.9331 2.15587 68.8719 1.47764C63.8832 0.37223 58.7246 -0.771262 53.8913 0.798488C48.8399 2.43862 45.29 6.48517 41.8568 10.3986C39.7675 12.78 37.7937 15.0298 35.5945 16.6304C34.8206 17.1937 33.9376 17.7379 32.895 18.2939C31.7813 18.8878 31.3603 20.272 31.9541 21.3856C32.5479 22.4992 33.9321 22.92 35.0461 22.3262C36.2776 21.6693 37.337 21.0148 38.284 20.3253C40.8942 18.4256 43.1303 15.8769 45.2927 13.4122C48.4578 9.80475 51.4471 6.39712 55.3032 5.14486C58.9531 3.96023 63.2909 4.92152 67.8835 5.93948C71.1847 6.67103 74.5988 7.42757 78.0006 7.42757C81.4025 7.42757 84.8162 6.67103 88.1178 5.93918C92.7109 4.92152 97.0494 3.96023 100.698 5.14455C104.554 6.39651 107.543 9.80414 110.709 13.4119C112.871 15.8766 115.107 18.4253 117.717 20.325C120.368 22.2543 123.512 23.6144 126.552 24.9297C130.931 26.824 135.066 28.6134 137.412 31.8358C139.725 35.0149 140.155 39.4825 140.611 44.2125C140.93 47.5278 141.26 50.9558 142.284 54.1112C143.261 57.1209 144.973 59.995 146.628 62.7744C149.096 66.9239 151.43 70.8425 151.43 74.9999C151.43 79.1574 149.096 83.0763 146.626 87.2252C144.971 90.0046 143.26 92.8784 142.283 95.8878C141.258 99.0431 140.929 102.471 140.609 105.787C140.154 110.516 139.724 114.984 137.41 118.163C135.065 121.386 130.93 123.175 126.551 125.069C123.511 126.385 120.367 127.745 117.716 129.674C115.106 131.574 112.87 134.122 110.707 136.587C107.542 140.195 104.553 143.602 100.697 144.854C97.0475 146.039 92.7097 145.077 88.1165 144.059C84.8149 143.328 81.4012 142.571 77.9997 142.571C74.5979 142.571 71.1841 143.328 67.8825 144.059C63.2897 145.077 58.9519 146.039 55.3023 144.854C51.4462 143.602 48.4566 140.195 45.2918 136.587C43.1294 134.122 40.8936 131.573 38.2831 129.674C35.6323 127.744 32.4882 126.384 29.448 125.069C25.0697 123.175 20.9339 121.385 18.5887 118.163C16.2752 114.984 15.8453 110.516 15.3898 105.786C15.0708 102.471 14.7408 99.0431 13.7164 95.8878C12.7393 92.8784 11.0282 90.0043 9.37341 87.2252C6.90361 83.0763 4.57031 79.1574 4.57031 74.9999C4.57031 70.8425 6.90361 66.9239 9.37402 62.775C11.0288 59.9956 12.7399 57.1215 13.717 54.1121C14.7417 50.9568 15.0714 47.5284 15.3907 44.2131C15.8459 39.4831 16.2758 35.0155 18.5896 31.8364C19.9226 30.0049 21.9195 28.4885 25.0648 26.9196C26.1943 26.3563 26.6531 24.984 26.0898 23.8548C25.5264 22.7253 24.1541 22.2665 23.0249 22.8298C20.4424 24.118 17.1844 26.0004 14.894 29.1475C11.8459 33.3358 11.3353 38.6428 10.8411 43.7756C10.5321 46.9876 10.2399 50.0214 9.37006 52.7011C8.55105 55.2239 7.04316 57.7562 5.4469 60.4371C2.769 64.9343 0 69.585 0 74.9999C0 80.4152 2.769 85.0659 5.4469 89.5634C7.04316 92.2443 8.55105 94.7766 9.37006 97.2994C10.2399 99.9788 10.5318 103.013 10.8411 106.224C11.335 111.357 11.8459 116.664 14.894 120.853C17.9738 125.084 22.8848 127.209 27.6339 129.264C30.5751 130.536 33.3532 131.738 35.5945 133.37C37.7937 134.97 39.7672 137.22 41.8568 139.601C45.29 143.515 48.8402 147.562 53.8916 149.201C55.5939 149.754 57.3358 149.97 59.0969 149.97C62.3366 149.97 65.64 149.238 68.8719 148.522C71.9331 147.844 75.0988 147.142 78 147.142C80.9015 147.142 84.0669 147.844 87.1281 148.522C92.1168 149.628 97.2751 150.771 102.109 149.201C107.16 147.561 110.71 143.515 114.143 139.601C116.232 137.22 118.206 134.97 120.405 133.369C122.647 131.738 125.425 130.536 128.366 129.264C133.115 127.209 138.026 125.084 141.106 120.852C144.154 116.664 144.665 111.357 145.159 106.224C145.468 103.012 145.76 99.9785 146.63 97.2991C147.449 94.7763 148.957 92.244 150.553 89.5631C153.231 85.0656 156 80.4148 156 74.9999C156 69.585 153.231 64.9343 150.553 60.4368Z" fill="#415763"/>
<path d="M21.9531 56.7888C21.3041 58.7879 20.0936 60.8201 18.8124 62.9721C16.6116 66.6683 14.3359 70.4903 14.3359 74.9991C14.3359 79.5078 16.6116 83.3298 18.8124 87.0263C20.0936 89.1783 21.3038 91.2109 21.9531 93.2096C22.6439 95.337 22.8782 97.7732 23.1265 100.353C23.5323 104.571 23.9522 108.933 26.4927 112.424C29.0587 115.95 33.0949 117.696 36.998 119.385C39.3596 120.407 41.5902 121.372 43.3684 122.666C45.1124 123.935 46.6968 125.741 48.3741 127.653C51.1958 130.87 54.1135 134.196 58.3218 135.562C59.7521 136.026 61.2088 136.208 62.6758 136.208C65.3437 136.208 68.0475 135.608 70.6931 135.022C73.2649 134.452 75.6942 133.914 77.9989 133.914C80.3035 133.914 82.7328 134.452 85.3047 135.022C89.4058 135.931 93.6455 136.871 97.6759 135.562C101.884 134.196 104.802 130.87 107.623 127.653C109.301 125.741 110.885 123.935 112.629 122.666C114.407 121.372 116.638 120.407 118.999 119.385C122.902 117.696 126.939 115.95 129.505 112.424C132.045 108.933 132.465 104.571 132.871 100.353C133.119 97.7736 133.354 95.337 134.045 93.2099C134.694 91.2109 135.904 89.1783 137.185 87.0263C139.386 83.3301 141.662 79.5081 141.662 74.9994C141.662 70.4909 139.386 66.6686 137.185 62.9725C135.904 60.8204 134.694 58.7879 134.045 56.7888C133.354 54.6618 133.119 52.2252 132.871 49.6457C132.465 45.4273 132.045 41.0654 129.505 37.5746C126.939 34.0485 122.902 32.3023 118.999 30.6137C116.638 29.5918 114.407 28.6269 112.629 27.3329C110.885 26.0635 109.301 24.2576 107.623 22.3454C104.802 19.1288 101.884 15.8032 97.6759 14.4367C93.6452 13.128 89.4055 14.0677 85.3047 14.9766C82.7328 15.5466 80.3035 16.085 77.9989 16.085C75.6942 16.085 73.2649 15.5466 70.6931 14.9766C66.5923 14.0677 62.3519 13.128 58.3218 14.4367C54.1135 15.8029 51.1958 19.1288 48.3741 22.3454C46.6968 24.2573 45.1124 26.0635 43.3684 27.3329C41.5902 28.6269 39.3596 29.5921 36.998 30.6137C33.0949 32.3023 29.0587 34.0485 26.4927 37.5746C23.9522 41.0654 23.5326 45.4273 23.1265 49.6457C22.8782 52.2249 22.6439 54.6612 21.9531 56.7888ZM27.6758 50.0833C28.039 46.3094 28.382 42.7452 30.1879 40.2635C32.0194 37.7471 35.3192 36.3193 38.813 34.8077C41.2993 33.7322 43.8702 32.6198 46.0579 31.0275C48.2129 29.4593 50.0417 27.3749 51.8101 25.3591C54.3353 22.4804 56.7207 19.7614 59.7335 18.7833C62.5789 17.8598 66.0399 18.6264 69.7044 19.4384C72.4033 20.0365 75.1942 20.655 77.9992 20.655C80.8041 20.655 83.5951 20.0365 86.294 19.4384C89.9579 18.6261 93.4185 17.8589 96.2649 18.7833C99.2776 19.7614 101.663 22.4804 104.188 25.3591C105.957 27.3749 107.785 29.4593 109.94 31.0275C112.128 32.6198 114.699 33.7322 117.185 34.8077C120.679 36.3193 123.979 37.7468 125.81 40.2635C127.616 42.7452 127.959 46.3094 128.323 50.0833C128.583 52.7941 128.853 55.5972 129.699 58.2001C130.506 60.6861 131.905 63.0367 133.259 65.3103C135.23 68.6211 137.092 71.7481 137.092 74.9991C137.092 78.2501 135.23 81.3774 133.259 84.6878C131.905 86.9611 130.506 89.3121 129.699 91.798C128.853 94.401 128.583 97.2041 128.323 99.9149C127.959 103.689 127.616 107.253 125.81 109.735C123.979 112.251 120.679 113.679 117.185 115.19C114.699 116.266 112.128 117.378 109.94 118.971C107.785 120.539 105.957 122.624 104.188 124.639C101.663 127.518 99.2776 130.236 96.2649 131.215C93.4191 132.139 89.9582 131.372 86.294 130.56C83.5951 129.962 80.8041 129.343 77.9992 129.343C75.1942 129.343 72.4033 129.962 69.7044 130.56C66.0405 131.372 62.5792 132.139 59.7335 131.215C56.7207 130.237 54.3353 127.518 51.8101 124.639C50.0417 122.623 48.2129 120.539 46.0579 118.971C43.8702 117.378 41.2993 116.266 38.813 115.19C35.3195 113.679 32.0197 112.251 30.1879 109.735C28.382 107.253 28.039 103.688 27.6758 99.9149C27.415 97.2041 27.1453 94.4013 26.3001 91.7983C25.493 89.3124 24.0933 86.9617 22.7395 84.6881C20.7682 81.3774 18.9063 78.2504 18.9063 74.9991C18.9063 71.7481 20.7682 68.6211 22.7395 65.3103C24.0929 63.0367 25.493 60.6858 26.3001 58.2001C27.145 55.5972 27.415 52.7941 27.6758 50.0833Z" fill="#415763"/>
<path d="M69.7691 105.294C69.6356 105.294 69.5025 105.292 69.3687 105.287C65.9904 105.173 62.8137 103.616 60.6531 101.017L49.3087 87.3669C46.7941 84.3411 47.2097 79.8335 50.2356 77.3186L53.4159 74.6755C56.4421 72.1609 60.949 72.5765 63.4642 75.6023L69.1795 82.4791C69.5007 82.8655 69.9102 82.9353 70.1256 82.9426C70.3389 82.9499 70.7538 82.9081 71.1006 82.544C71.1198 82.5239 71.1393 82.5041 71.1594 82.4846L100.35 54.0037C101.662 52.6438 103.422 51.8705 105.312 51.8245C107.215 51.777 109.027 52.4769 110.407 53.7913L113.401 56.6438C116.25 59.3573 116.359 63.8825 113.646 66.7314C113.63 66.7481 113.614 66.7643 113.598 66.7804L98.0858 82.1126C97.1879 83.0002 95.741 82.9913 94.8543 82.0937C93.9671 81.1961 93.9756 79.7491 94.8729 78.8622L110.356 63.5577C111.312 62.5325 111.266 60.9213 110.249 59.9524L107.254 57.0999C106.758 56.6273 106.107 56.3744 105.423 56.3927C104.738 56.4095 104.1 56.6916 103.628 57.1876C103.608 57.2078 103.589 57.2276 103.569 57.2471L74.3769 85.7289C73.2273 86.9169 71.6179 87.5665 69.9705 87.5089C68.3011 87.4526 66.7317 86.6835 65.6643 85.399L59.949 78.5222C59.045 77.4344 57.4244 77.2851 56.3369 78.1888L53.1563 80.832C52.0686 81.736 51.9193 83.3563 52.823 84.4441L64.1674 98.0938C65.4949 99.6912 67.4471 100.648 69.5229 100.718C71.5969 100.79 73.6109 99.9661 75.0435 98.4621C75.0594 98.4454 75.0755 98.4292 75.0917 98.4131L87.9035 85.7497C88.8014 84.8621 90.2484 84.8709 91.1353 85.7685C92.0225 86.6662 92.014 88.1131 91.1167 89.0001L78.3281 101.641C76.0907 103.976 72.9924 105.294 69.7691 105.294Z" fill="#415763"/>
</svg>
