<svg width="52" height="53" viewBox="0 0 52 53" fill="none" xmlns="http://www.w3.org/2000/svg">
<path d="M51.7538 40.4097L42.0727 30.6499L42.7738 29.943L43.0195 30.1908C43.1831 30.3556 43.3978 30.4385 43.6125 30.4385C43.8272 30.4385 44.0419 30.3556 44.2055 30.1908L46.7216 27.6542C47.0495 27.3236 47.0495 26.7893 46.7216 26.4587L41.9351 21.6333V5.9186C41.9351 2.65491 39.3007 0 36.0642 0H4.19351C1.88121 0 0 1.89649 0 4.22757V10.9917C0 11.4584 0.3749 11.8372 0.838702 11.8372H6.70962V48.1943C6.70962 50.5254 8.59083 52.4219 10.9031 52.4219H41.0964C43.4087 52.4219 45.2899 50.5254 45.2899 48.1943V46.5033C45.2899 46.0366 44.915 45.6578 44.4512 45.6578H41.9351V37.1299L48.4711 43.719C48.6347 43.8839 48.8494 43.9667 49.0641 43.9667C49.2788 43.9667 49.4935 43.8839 49.657 43.719L51.7538 41.6052C52.0817 41.2746 52.0817 40.7403 51.7538 40.4097ZM36.9029 33.4705L33.8953 30.4385L38.5803 25.7155L41.5879 28.7475L36.9029 33.4705ZM36.5557 35.5116L35.2255 36.8526L30.5405 32.1295L31.8707 30.7886L36.5557 35.5116ZM43.6125 28.3974L38.9275 23.6744L40.2577 22.3334L44.9427 27.0565L43.6125 28.3974ZM6.70962 10.1462H1.6774V4.22757C1.6774 2.82909 2.8063 1.69103 4.19351 1.69103C5.58072 1.69103 6.70962 2.82909 6.70962 4.22757V10.1462ZM43.6125 48.1943C43.6125 49.5928 42.4836 50.7308 41.0964 50.7308H14.2563C14.7838 50.024 15.0966 49.1455 15.0966 48.1943V47.3488H43.6125V48.1943ZM40.2577 45.6578H14.2579C13.7941 45.6578 13.4192 46.0366 13.4192 46.5033V48.1943C13.4192 49.5928 12.2903 50.7308 10.9031 50.7308C9.51591 50.7308 8.38702 49.5928 8.38702 48.1943V4.22757C8.38702 3.27214 8.05909 2.39957 7.52651 1.69103H36.0642C38.3765 1.69103 40.2577 3.58752 40.2577 5.9186V20.2923C40.043 20.2923 39.8283 20.3752 39.6647 20.5401L37.1486 23.0766C36.8207 23.4072 36.8207 23.9416 37.1486 24.2722L37.3944 24.5199L32.7094 29.243L32.4636 28.9952C32.1357 28.6646 31.6056 28.6646 31.2777 28.9952L28.7616 31.5318C28.4337 31.8624 28.4337 32.3967 28.7616 32.7273L34.6325 38.6459C34.7961 38.8108 35.0108 38.8937 35.2255 38.8937C35.4402 38.8937 35.6549 38.8108 35.8185 38.6459L38.3346 36.1094C38.6625 35.7788 38.6625 35.2444 38.3346 34.9138L38.0888 34.6661L38.79 33.9592L40.2577 35.4389V45.6578ZM49.0641 41.9257L39.9759 32.7637L40.8867 31.8454L49.9749 41.0074L49.0641 41.9257Z" fill="#415763"/>
<path d="M10.9028 15.2192H38.58V16.9103H10.9028V15.2192Z" fill="#415763"/>
<path d="M10.9028 21.9834H35.2252V23.6744H10.9028V21.9834Z" fill="#415763"/>
<path d="M10.9028 18.6016H38.58V20.2926H10.9028V18.6016Z" fill="#415763"/>
<path d="M10.9028 8.45508H38.58V10.1461H10.9028V8.45508Z" fill="#415763"/>
<path d="M10.9028 5.07324H38.58V6.76427H10.9028V5.07324Z" fill="#415763"/>
<path d="M10.9028 11.8369H38.58V13.5279H10.9028V11.8369Z" fill="#415763"/>
<path d="M10.9028 25.3652H33.5478V27.0563H10.9028V25.3652Z" fill="#415763"/>
<path d="M17.6134 28.7476C13.4509 28.7476 10.0651 32.1617 10.0651 36.3572C10.0651 40.5526 13.4509 43.9668 17.6134 43.9668C21.7759 43.9668 25.1617 40.5526 25.1617 36.3572C25.1617 32.1617 21.7759 28.7476 17.6134 28.7476ZM17.6134 42.2758C14.3768 42.2758 11.7425 39.6209 11.7425 36.3572C11.7425 33.0935 14.3768 30.4386 17.6134 30.4386C20.8499 30.4386 23.4843 33.0935 23.4843 36.3572C23.4843 39.6209 20.8499 42.2758 17.6134 42.2758Z" fill="#415763"/>
<path d="M17.6134 32.1294C15.3011 32.1294 13.4199 34.0259 13.4199 36.357C13.4199 38.688 15.3011 40.5845 17.6134 40.5845C19.9257 40.5845 21.8069 38.688 21.8069 36.357C21.8069 34.0259 19.9257 32.1294 17.6134 32.1294ZM17.6134 38.8935C16.2262 38.8935 15.0973 37.7554 15.0973 36.357C15.0973 34.9585 16.2262 33.8204 17.6134 33.8204C19.0006 33.8204 20.1295 34.9585 20.1295 36.357C20.1295 37.7554 19.0006 38.8935 17.6134 38.8935Z" fill="#415763"/>
<path d="M31.8701 40.5845C31.8701 40.2124 31.6286 39.8827 31.2746 39.7753C30.9224 39.6671 30.5382 39.8049 30.3336 40.1152L30.0518 40.5413C29.3339 41.627 28.132 42.2755 26.8379 42.2755V43.9665C28.3014 43.9665 29.6828 43.3882 30.706 42.3812C31.2998 43.3324 32.3515 43.9665 33.5475 43.9665H36.9023V42.2755H33.5475C32.6224 42.2755 31.8701 41.5171 31.8701 40.5845Z" fill="#415763"/>
</svg>
