<svg width="360" height="318" viewBox="0 0 360 318" fill="none" xmlns="http://www.w3.org/2000/svg">
<rect width="360" height="318" fill="#E3E3E3"/>
<path d="M156.667 156L163.333 149.333L181.667 167.667L193.333 156L203.333 166V135.667H156.667V156ZM156.667 165.43V182.333H167L176.953 172.383L163.333 158.763L156.667 165.43ZM176.43 182.333H203.333V175.43L193.333 165.43L176.43 182.333ZM153.333 129H206.667C207.551 129 208.399 129.351 209.024 129.976C209.649 130.601 210 131.449 210 132.333V185.667C210 186.551 209.649 187.399 209.024 188.024C208.399 188.649 207.551 189 206.667 189H153.333C152.449 189 151.601 188.649 150.976 188.024C150.351 187.399 150 186.551 150 185.667V132.333C150 131.449 150.351 130.601 150.976 129.976C151.601 129.351 152.449 129 153.333 129V129ZM191.667 152.333C190.341 152.333 189.069 151.807 188.131 150.869C187.193 149.931 186.667 148.659 186.667 147.333C186.667 146.007 187.193 144.735 188.131 143.798C189.069 142.86 190.341 142.333 191.667 142.333C192.993 142.333 194.265 142.86 195.202 143.798C196.14 144.735 196.667 146.007 196.667 147.333C196.667 148.659 196.14 149.931 195.202 150.869C194.265 151.807 192.993 152.333 191.667 152.333V152.333Z" fill="#ADADAD"/>
</svg>
