<svg width="900" height="600" viewBox="0 0 900 600" fill="none" xmlns="http://www.w3.org/2000/svg">
<rect width="900" height="600" fill="#E3E3E3"/>
<path d="M426.667 297L433.333 290.333L451.667 308.667L463.333 297L473.333 307V276.667H426.667V297ZM426.667 306.43V323.333H437L446.953 313.383L433.333 299.763L426.667 306.43ZM446.43 323.333H473.333V316.43L463.333 306.43L446.43 323.333ZM423.333 270H476.667C477.551 270 478.399 270.351 479.024 270.976C479.649 271.601 480 272.449 480 273.333V326.667C480 327.551 479.649 328.399 479.024 329.024C478.399 329.649 477.551 330 476.667 330H423.333C422.449 330 421.601 329.649 420.976 329.024C420.351 328.399 420 327.551 420 326.667V273.333C420 272.449 420.351 271.601 420.976 270.976C421.601 270.351 422.449 270 423.333 270ZM461.667 293.333C460.341 293.333 459.069 292.807 458.131 291.869C457.193 290.931 456.667 289.659 456.667 288.333C456.667 287.007 457.193 285.735 458.131 284.798C459.069 283.86 460.341 283.333 461.667 283.333C462.993 283.333 464.265 283.86 465.202 284.798C466.14 285.735 466.667 287.007 466.667 288.333C466.667 289.659 466.14 290.931 465.202 291.869C464.265 292.807 462.993 293.333 461.667 293.333Z" fill="#ADADAD"/>
</svg>
