<svg width="120" height="60" viewBox="0 0 120 60" fill="none" xmlns="http://www.w3.org/2000/svg">
<path d="M96.0425 16.6975C98.6175 19.4325 100 22.5 100 27.4725C100 36.2225 93.8575 44.065 84.925 47.9425L82.6925 44.4975C91.03 39.9875 92.66 34.135 93.31 30.445C91.9675 31.14 90.21 31.3825 88.4875 31.2225C83.9775 30.805 80.4225 27.1025 80.4225 22.5C80.4225 20.1794 81.3444 17.9538 82.9853 16.3128C84.6263 14.6719 86.8519 13.75 89.1725 13.75C91.855 13.75 94.42 14.975 96.0425 16.6975V16.6975Z" fill="#CBCBCB"/>
<path d="M36.0425 16.6975C38.6175 19.4325 40 22.5 40 27.4725C40 36.2225 33.8575 44.065 24.925 47.9425L22.6925 44.4975C31.03 39.9875 32.66 34.135 33.31 30.445C31.9675 31.14 30.21 31.3825 28.4875 31.2225C23.9775 30.805 20.4225 27.1025 20.4225 22.5C20.4225 20.1794 21.3444 17.9538 22.9853 16.3128C24.6263 14.6719 26.8519 13.75 29.1725 13.75C31.855 13.75 34.42 14.975 36.0425 16.6975V16.6975Z" fill="#CBCBCB"/>
</svg>
